<svg id="Layer_1" data-name="Layer 1" xmlns="http://www.w3.org/2000/svg" viewBox="0 0 991.1 990"><defs><style>.cls-1{fill:#f89f1b;}.cls-2{fill:#ffc50a;}.cls-3{fill:#ed4594;}.cls-4{fill:#eb008b;}.cls-5{fill:#f09722;}</style></defs><title>cabin-logo</title><path class="cls-1" d="M995.05,500H747.26l-.29-.58L500.05,5h495Z" transform="translate(-3.95 -5)"/><polygon class="cls-1" points="743.02 494.42 743.31 495 991.1 495 991.1 0 496.1 0 743.02 494.42"/><polygon class="cls-2" points="744.81 495 495.87 0 495 0 495 495 496.74 495 744.81 495"/><polygon class="cls-3" points="495 0 246.06 495 495 495 495 0"/><polygon class="cls-4" points="495 495.58 495 495 246.19 495 0 990 495 990 495 495.58"/><polygon class="cls-5" points="742.37 495 495 495 495 990 990 990 742.37 495"/></svg>